<?xml version="1.0" encoding="UTF-8"?>
<svg id="Layer_1" xmlns="http://www.w3.org/2000/svg" version="1.1" viewBox="0 0 811.11 811.11">
  <!-- Generator: Adobe Illustrator 29.8.1, SVG Export Plug-In . SVG Version: 2.1.1 Build 2)  -->
  <defs>
    <style>
      .st0 {
        fill: #fff;
      }

      .st1 {
        fill: #f57f20;
      }
    </style>
  </defs>
  <rect class="st1" width="811.11" height="811.11" rx="9.16" ry="9.16"/>
  <path class="st0" d="M127.99,752.96v-97.53h89.88V180.22h-89.88v-96.57h340.39c120.47,0,201.75,65.97,201.75,168.28v9.56c0,92.75-62.15,131-105.18,144.38v15.3c43.98,12.43,108.04,50.68,108.04,146.3v9.56c0,110.91-84.14,175.93-201.75,175.93H127.99ZM327.82,365.72h130.04c61.19,0,102.31-32.51,102.31-86.05v-9.56c0-53.54-40.16-87.01-102.31-87.01h-130.04v182.63ZM327.82,652.56h130.04c65.02,0,105.18-32.51,105.18-88.92v-8.6c0-56.42-39.2-88.92-105.18-88.92h-130.04v186.45Z"/>
  <path class="st0" d="M352.55,211.11h136.67c20.97,0,38,17.03,38,38v48c0,20.97-17.03,38-38,38h-136.67v-124h0Z"/>
  <path class="st0" d="M352.55,497.34h136.67c20.97,0,38,17.03,38,38v48c0,20.97-17.03,38-38,38h-136.67v-124h0Z"/>
</svg>